<svg xmlns="http://www.w3.org/2000/svg" version="1.1" xmlns:xlink="http://www.w3.org/1999/xlink" xmlns:svgjs="http://svgjs.dev/svgjs" viewBox="0 0 800 800"><defs><linearGradient x1="50%" y1="0%" x2="50%" y2="100%" id="uundulate-grad"><stop stop-color="hsl(206, 75%, 49%)" stop-opacity="1" offset="45%"></stop><stop stop-color="hsl(331, 90%, 56%)" stop-opacity="1" offset="100%"></stop></linearGradient></defs><g stroke-width="2" stroke="url(#uundulate-grad)" fill="none"><path d="M813.9999756298232 -425.2574471609479C1001.6386971400086 -47.59186967619769 1323.4243569664313 780.8434689300625 1134.6160819069476 1157.9257059764773C945.807806847464 1535.007943022892 218.86200987863742 1565.2918269658044 -92.27974465569662 1384.7372906618452C-403.42149919003066 1204.1827543578856 -315.92067541626915 648.4263229052474 -358.8643398578546 291.2639317174712C-401.80800429944003 -65.89845947030506 -421.9123669994553 -132.53114585869127 -298.4093339753068 -329.642187039481C-174.9063009511583 -526.7532282202707 2.1982791569877236 -634.9492200916822 233.95021865805666 -654.8690659503209C465.7021581591257 -674.7889118089596 626.3612541196376 -802.9230246456981 813.9999756298232 -425.2574471609479C1001.6386971400086 -47.59186967619769 1323.4243569664313 780.8434689300625 1134.6160819069476 1157.9257059764773 "></path><path d="M802.499975459062 -402.33366648351716C984.9265102606312 -35.15879948445445 1297.7736795363196 770.2644463827426 1114.2100787840438 1136.8721768445348C930.6464780317685 1503.4799073063273 223.8936198676314 1532.922572250825 -78.60530815186007 1357.3834397330866C-381.10423617135143 1181.8443072153486 -296.03399083574993 641.5255544141728 -337.78477570951355 294.2843407593905C-379.53556058327723 -52.95687289539205 -399.08146876384757 -117.73865132854542 -279.0090755459255 -309.3743858098687C-158.93668232800337 -501.01012029119204 13.248326110472021 -606.2006679439531 238.56271173651135 -625.567184750963C463.87709736255056 -644.9337015579729 620.0734406574925 -769.5085334825798 802.499975459062 -402.33366648351716C984.9265102606312 -35.15879948445445 1297.7736795363196 770.2644463827426 1114.2100787840438 1136.8721768445348 "></path><path d="M791.000005805879 -379.40979425335183C968.2143538988319 -22.725637739976605 1272.1230326237865 759.6855153881577 1093.8041061787187 1115.8187392653276C915.4851797336507 1471.9519631424973 228.92526037420362 1500.5534090885808 -64.93084113044529 1330.0296803570636C-358.7869426350941 1159.505951625547 -276.14727573765265 634.6248774758326 -316.70518104359445 297.30484135404413C-357.26308634953625 -40.015194767744674 -376.2505400106617 -102.94606524566507 -259.608786598966 -289.106493027522C-142.9670331872702 -475.2669208093789 24.29840358153433 -577.4520242434897 243.17523533254393 -596.2652119988708C462.05206708355354 -615.0783997542518 613.785657712926 -736.0939507667271 791.000005805879 -379.40979425335183C968.2143538988319 -22.725637739976605 1272.1230326237865 759.6855153881577 1093.8041061787187 1115.8187392653276 "></path><path d="M779.4999445999615 -356.4859220231866C951.5021059842982 -10.292475995498876 1246.4722941585187 749.1065843935728 1073.3980420206587 1094.7653016861195C900.323789882799 1440.424018978667 233.95680932804134 1468.1842459263362 -51.25646566176488 1302.6759209810402C-336.4697406515711 1137.1675960357443 -256.2606521922897 627.7242005374926 -295.62567793040967 300.32534194869777C-334.99070366852965 -27.073516640097296 -353.4197028102103 -88.15347916278472 -240.20858920474086 -268.83860024517526C-126.99747559927141 -449.5237213275659 35.34838949986238 -548.7033805430264 247.78766737584226 -566.9632392467786C460.22694525182214 -585.2230979505307 607.4977832156246 -702.6793680508742 779.4999445999615 -356.4859220231866C951.5021059842982 -10.292475995498876 1246.4722941585187 749.1065843935728 1073.3980420206587 1094.7653016861195 "></path><path d="M767.9999444292005 -333.5621718633339C934.789919104921 2.1405636786663536 1220.8216167284074 738.5275313286752 1052.9920388977555 1073.7117420365996C885.1624610671033 1408.895952744524 238.98841931703532 1435.8149606937786 -37.58202915792822 1275.3220395347043C-314.1524776328919 1114.8291183756292 -236.37396761177047 620.8234015288397 -274.5461137820687 303.34572047303845C-312.71825995236685 -14.131960582762417 -330.5888045746026 -73.36101515021687 -220.80833077535954 -248.57082953314114C-111.02785697611648 -423.7806439160653 46.398436453346676 -519.9548589128755 252.40016045429684 -537.6613885649988C458.401884455247 -555.367918217122 601.20996975348 -669.264907405334 767.9999444292005 -333.5621718633339C934.789919104921 2.1405636786663536 1220.8216167284074 738.5275313286752 1052.9920388977555 1073.7117420365996 "></path><path d="M756.4999442584392 -310.6384217034812C918.0777322255435 14.57360335283147 1195.1709392982962 727.9484782637776 1032.586035774852 1052.6581823870793C870.0011322514076 1377.3678865103811 244.0200293060293 1403.445675461222 -23.90759265409156 1247.968158088368C-291.83521461421265 1092.4906407155145 -216.4872830312513 613.922602520187 -253.46654963372765 306.3660989973796C-290.445816236204 -1.1904045254275388 -307.75790633899487 -58.56855113764914 -201.4080723459782 -228.3030588211069C-95.05823835296144 -398.03756650456467 57.448483406830974 -491.2063372827246 257.01265353275153 -508.359537883219C456.57682365867186 -525.5127384837135 594.9221562913349 -635.8504467597938 756.4999442584392 -310.6384217034812C918.0777322255435 14.57360335283147 1195.1709392982962 727.9484782637776 1032.586035774852 1052.6581823870793 "></path><path d="M745.0000051228344 -287.71454947331597C901.3656063813223 27.0067650973092 1169.520322903341 717.3695472691925 1012.1800936871045 1031.6047448078718C854.8398644708684 1345.8399423465507 249.05170033017953 1371.0765122989774 -10.233095115098763 1220.6143987123446C-269.5178905603771 1070.152285125712 -196.60053741557584 607.0219255818467 -232.38692445023037 309.38659959203324C-268.17331148488495 11.751273602219726 -284.92694706823096 -43.7759650547689 -182.00775288144058 -208.03516603876028C-79.08855869465015 -372.29436702275166 68.49859139547152 -462.4576935822612 261.62520764636236 -479.05756513112675C454.75182389725296 -495.6574366799924 588.6344038643463 -602.4358640439411 745.0000051228344 -287.71454947331597C901.3656063813223 27.0067650973092 1169.520322903341 717.3695472691925 1012.1800936871045 1031.6047448078718 "></path><path d="M733.5000049520731 -264.79067724315075C884.6534195019449 39.43992684178693 1143.8696454732296 706.7906162746074 991.7740905642013 1010.551307228664C839.6785356551727 1314.3119981827203 254.08331031917373 1338.7073491367328 3.4413413887378965 1193.2606393363212C-247.20062754169788 1047.8139295359097 -176.71385283505663 600.1212486435065 -211.3073603018894 312.4071001866869C-245.9008677687221 24.692951729867218 -262.09604883262324 -28.983378971888442 -162.6074944520592 -187.76727325641355C-63.11894007149522 -346.55116754093854 79.54863834895582 -433.7090498817978 266.23770072481693 -449.7555923790345C452.9267631006778 -465.8021348762713 582.3465904022014 -569.0212813280884 733.5000049520731 -264.79067724315075C884.6534195019449 39.43992684178693 1143.8696454732296 706.7906162746074 991.7740905642013 1010.551307228664 "></path><path d="M721.999974263734 -241.8668965657199C867.9412021049893 51.87299703353028 1118.21893752554 696.2115937272881 971.3680569237195 989.4977780967217C824.5171763218991 1282.7839624661556 259.1148897905896 1306.3380944217538 17.115747374996317 1165.9067884075635C-224.88339504059678 1025.4754823933729 -156.8271987721156 593.2204801524322 -190.22782667112648 315.42750922860614C-223.62845457013742 37.63453830478011 -239.2651811145937 -14.190884441742583 -143.207266540256 -167.4994720268012C-47.1493519659183 -320.80805961185985 90.59865478486199 -404.9604977340688 270.85016328569327 -420.45371117967665C451.1016717865248 -435.94692462528457 576.0587464224786 -535.6067901649701 721.999974263734 -241.8668965657199C867.9412021049893 51.87299703353028 1118.21893752554 696.2115937272881 971.3680569237195 989.4977780967217 "></path><path d="M710.4999740929729 -218.94308537071095C851.2290152256119 64.30609774285176 1092.5682600954287 685.6326016975465 950.9620538008162 968.4442794823578C809.3558475062034 1251.2559572671692 264.14649977958356 1273.968870224353 30.790183878832977 1138.5529679963836C-202.56613202191755 1003.1370657684142 -136.94051419159638 586.3197421789355 -169.1482625227855 318.4479487881033C-201.35601085397457 50.57615539727112 -216.43428287898598 0.6016406059814017 -123.80700811087468 -147.2316402796107C-31.179733342763257 -295.06492116520303 101.64870173834629 -376.21191506876164 275.46265636414796 -391.15179946274066C449.27661098994963 -406.09168385671967 569.7709329603335 -502.1922684842736 710.4999740929729 -218.94308537071095C851.2290152256119 64.30609774285176 1092.5682600954287 685.6326016975465 950.9620538008162 968.4442794823578 "></path><path d="M698.9999739222117 -196.01927417570198C834.5168283462344 76.73919845217313 1066.9175826653175 675.0536096678054 930.5560506779125 947.390780867994C794.1945186905077 1219.7279520681825 269.17810976857754 1241.5996460269523 44.46462038266964 1111.199147585204C-180.24886900323833 980.7986491434556 -117.05382961107716 579.4190042054393 -148.06869837444447 321.4683883476007C-179.0835671378117 63.517772489762365 -193.60338464337826 15.394165653705613 -104.4067496814933 -126.96380853242033C-15.210114719608328 -269.3217827185462 112.69874869183059 -347.4633324034545 280.07514944260265 -361.84988774580466C447.4515501933746 -376.23644308815483 563.4831194981887 -468.7777468035771 698.9999739222117 -196.01927417570198C834.5168283462344 76.73919845217313 1066.9175826653175 675.0536096678054 930.5560506779125 947.390780867994 "></path><path d="M687.4999737514504 -173.09549349827114C817.804641466857 89.1722686439166 1041.266905235206 664.4745871204859 910.1500475550092 926.3372517360519C779.0331898748123 1188.1999163516177 274.2097197575715 1209.2303913119733 58.139056886506296 1083.845296656446C-157.93160598455904 958.4602020009188 -97.167145030558 572.5182357143644 -126.98913422610343 324.48879738951973C-156.81112342164892 76.45935906467525 -170.7724864077706 30.186660183851473 -85.00649125211191 -106.69600730280797C0.7595039035467153 -243.57867478946753 123.74879564531489 -318.7147802557255 284.6876425210571 -332.5480065464468C445.62648939679946 -346.3812328371681 557.1953060360438 -435.36325564045876 687.4999737514504 -173.09549349827114C817.804641466857 89.1722686439166 1041.266905235206 664.4745871204859 910.1500475550092 926.3372517360519 "></path><path d="M675.9999430631112 -150.17162126810592C801.0924240699014 101.60543038839421 1015.6161972875166 653.8956561259008 889.7440139145274 905.2838141568443C763.8718305415387 1156.6719721877873 279.2412992289874 1176.8612281497285 71.81346287276472 1056.4915372804226C-135.61437348345794 936.1218464111164 -77.28049096761691 565.6175587760245 -105.90960059534058 327.5092979841735C-134.5387102230642 89.40103719232263 -147.941618689741 44.97924626673182 -65.60626334030871 -86.42811452046135C16.729092009123633 -217.8354753076544 134.79881208122094 -289.9661365552621 289.3001050819337 -303.24603379435456C443.8013980826463 -316.525931033447 550.9074620563208 -401.94867292460606 675.9999430631112 -150.17162126810592C801.0924240699014 101.60543038839421 1015.6161972875166 653.8956561259008 889.7440139145274 905.2838141568443 "></path><path d="M664.4999428923502 -127.24774903794071C784.380237190524 114.03859213287194 989.9655198574051 643.3167251313157 869.3380107916241 884.2303765776364C748.7105017258427 1125.1440280239572 284.27290921798146 1144.492064987484 85.48789937660138 1029.137777904399C-113.29711046477871 913.783490821314 -57.393806387097754 558.716881837684 -84.83003644699954 330.5297985788271C-112.26626650690139 102.34271531997001 -125.11072045413329 59.77183234961217 -46.206004910927334 -66.16022173811461C32.69871063227856 -192.09227582584134 145.84885903470524 -261.2174928547987 293.91259816038814 -273.9440610422623C441.97633728607116 -286.67062922972593 544.6196485941759 -368.5340902087533 664.4999428923502 -127.24774903794071C784.380237190524 114.03859213287194 989.9655198574051 643.3167251313157 869.3380107916241 884.2303765776364 "></path><path d="M652.9999427215889 -104.32399887808799C767.6680503111468 126.47163180703706 964.3148424272938 632.7376720664181 848.9320076687204 863.1768169281161C733.5491729101473 1093.6159617898143 289.30451920697544 1112.122779754927 99.16233588043792 1001.783896458063C-90.97984744609948 891.4450131611991 -37.50712180657854 551.8160828290313 -63.750472298658565 333.55017710316815C-89.99382279073853 115.28427137730489 -102.27982221852562 74.5642963621799 -26.80574648154601 -45.89245102608038C48.668329255433605 -166.34919841434078 156.89890598818954 -232.46897122464776 298.52509123884283 -244.64221036048252C440.151276489496 -256.81544949631734 538.3318351320311 -335.1196295632131 652.9999427215889 -104.32399887808799C767.6680503111468 126.47163180703706 964.3148424272938 632.7376720664181 848.9320076687204 863.1768169281161 "></path><path d="M641.4999425508277 -81.40021820065704C750.9558634317696 138.90470199878064 938.6641649971825 622.1586495190991 828.5260045458172 842.1232877961743C718.3878440944516 1062.0879260732497 294.33612919596953 1079.7535250399483 112.83677238427458 974.4300455293055C-68.66258442742026 869.1065660186625 -17.620437226059323 544.9153143379567 -42.67090815031753 336.5705861450874C-67.72137907457568 128.2258579522179 -79.4489239829179 89.35679089232599 -7.405488052164628 -25.62464979646802C64.63794787858865 -140.6060904852621 167.94895294167384 -203.72041907691874 303.1375843172974 -215.34032916112466C438.32621569292087 -226.96023924533057 532.0440216698861 -301.7051384000947 641.4999425508277 -81.40021820065704C750.9558634317696 138.90470199878064 938.6641649971825 622.1586495190991 828.5260045458172 842.1232877961743 "></path><path d="M629.9999423800666 -58.47640700564807C734.2436765523921 151.337802708102 913.013487567071 611.5796574893575 808.1200014229134 821.0697891818104C703.2265152787559 1030.559920874263 299.3677391849635 1047.3843008425474 126.51120888811124 947.0762251181256C-46.34532140874103 846.7681493937039 2.2662473544598356 538.0145763644605 -21.591344001976495 339.5910257045848C-45.44893535841288 141.16747504470902 -56.61802574731024 104.14931594004997 11.994770377216696 -5.356818049277649C80.60756650174363 -114.86295203860527 178.99899989515814 -174.9718364116116 307.750077395752 -186.03841744418867C436.50115489634584 -197.10499847676573 525.7562082077413 -268.29061671939826 629.9999423800666 -58.47640700564807C734.2436765523921 151.337802708102 913.013487567071 611.5796574893575 808.1200014229134 821.0697891818104 "></path><path d="M618.4999422093055 -35.55259581063916C717.5314896730147 163.77090341742337 887.3628101369595 601.0006654596164 787.7139983000102 800.0162905674465C688.0651864630604 999.0319156752764 304.3993491739575 1015.0150766451466 140.1856453919479 919.722404706946C-24.028058390061744 824.4297327687452 22.15293193497905 531.113838390964 -0.5117798536355167 342.6114652640821C-23.176491642250028 154.10909213720015 -33.78712751170252 118.94184098777396 31.395028806598077 14.911013697912836C96.57718512489862 -89.1198135919484 190.04904684864232 -146.22325374630447 312.36257047420656 -156.73650572725268C434.6760940997707 -167.2497577082009 519.4683947455965 -234.8760950387018 618.4999422093055 -35.55259581063916C717.5314896730147 163.77090341742337 887.3628101369595 601.0006654596164 787.7139983000102 800.0162905674465 "></path><path d="M606.9999420385444 -12.62875409805207C700.8193027936372 176.20403464432297 861.7121327068485 590.4217039474531 767.3079951771065 778.9628224706605C672.9038576473649 967.5039409938679 309.43095916295147 982.6458829653241 153.86008189578456 892.3686148133445C-1.7107953713825168 802.0913466613647 42.03961651549827 524.2131309350457 20.56778429470552 345.6319353411575C-0.9040479260872303 167.0507397472693 -10.956229276094803 133.7343965530763 50.7952872359794 35.17887596268133C112.54680374805366 -63.37664462771346 201.09909380212662 -117.4746405634192 316.97506355266114 -127.43456349273856C432.85103330319566 -137.39448642205792 513.1805812834516 -201.46154284042717 606.9999420385444 -12.62875409805207C700.8193027936372 176.20403464432297 861.7121327068485 590.4217039474531 767.3079951771065 778.9628224706605 "></path><path d="M595.5000029029395 10.295118132113146C684.107176949416 188.6371963888007 836.0615163118932 579.842772952868 746.9020530893595 757.9093848914529C657.7425898668254 935.9759968300377 314.4626301871018 950.2767198030795 167.53457943477736 865.0148554373209C20.60652868245296 779.7529910715625 61.926362131173676 517.3124539967054 41.6474094782028 348.6524359358111C21.368456825231874 179.99241787491678 11.87472999466911 148.52698263595653 70.19560670051703 55.446768745028066C128.5164834063649 -37.633445145900396 212.14920179076717 -88.72599686295581 321.58761766627197 -98.13259074064632C431.02603354177677 -107.53918461833683 506.892828856463 -168.04696012457447 595.5000029029395 10.295118132113146C684.107176949416 188.6371963888007 836.0615163118932 579.842772952868 746.9020530893595 757.9093848914529 "></path><path d="M583.9999416970221 33.21892932712211C667.3949290348824 201.07029709812218 810.4107778466255 569.2637809231267 726.4959889312995 736.8558862770888C642.5812000159735 904.4479916310511 319.49417914093954 917.9074956056784 181.20895490345777 837.6610350261412C42.92373066597594 757.4145744466036 81.81298567653664 510.4117160232089 62.72691259138753 351.6728754953083C43.64083950623848 192.9340349674078 34.70556719512058 163.31950768368063 89.5958040947421 75.71460049221855C144.48604099436363 -11.890306699243581 223.1991877090952 -59.97741419764867 326.2000497095703 -68.83067902371033C429.2009117100454 -77.68394384977199 500.60495435916187 -134.63243844387796 583.9999416970221 33.21892932712211C667.3949290348824 201.07029709812218 810.4107778466255 569.2637809231267 726.4959889312995 736.8558862770888 "></path><path d="M572.5000025614172 56.14274052213108C650.6828031906612 213.50339780744366 784.7601614516705 558.6847888933853 706.0900468435523 715.8023876627249C627.4199322354342 872.9199864320644 324.52585016508976 885.5382714082778 194.88345244245062 810.3072146149614C65.24105471981142 735.0761578216452 101.69973129221205 503.51097804971243 83.80653777488482 354.6933150548057C65.91334425755753 205.87565205989893 57.53652646588455 178.1120327314046 108.99612355927974 95.98243223940892C160.45572065267493 13.852831747413234 234.24929569773576 -31.22883153234153 330.81260382318123 -39.52876730677434C427.3759119486265 -47.828703081207095 494.31720193217313 -101.2179167631815 572.5000025614172 56.14274052213108C650.6828031906612 213.50339780744366 784.7601614516705 558.6847888933853 706.0900468435523 715.8023876627249 "></path><path d="M561.000002390656 79.06655171714004C633.9706163112837 225.93649851676514 759.1094840215592 548.1057968636441 685.6840437206488 694.748889048361C612.2586034197386 841.3919812330778 329.55746015408386 853.1690472108769 208.55788894628722 782.9533942037817C87.5583177384907 712.7377411966863 121.58641587273127 496.6102400762161 104.8861019232258 357.71375461430307C88.18578797372038 218.81726915239005 80.36742470149221 192.9045577791287 128.39638198866106 116.2502639865994C176.4253392758299 39.595970194070105 245.29934265122006 -2.4802488670343905 335.4250969016357 -10.226855589838351C425.55085115205145 -17.973462312642255 488.0293884700284 -67.80339508248505 561.000002390656 79.06655171714004C633.9706163112837 225.93649851676514 759.1094840215592 548.1057968636441 685.6840437206488 694.748889048361 "></path><path d="M549.5000022198949 101.99039342972713C617.2584294319063 238.36962974366475 733.4588065914478 537.5268353514808 665.2780405977453 673.6954209515752C597.0972746040429 809.8640065516693 334.58907014307783 820.7998535310544 222.23232545012388 755.59960431018C109.87558075716993 690.399355089306 141.47310045325048 489.70953262029775 125.96566607156683 360.7342246913785C110.45823168988318 231.7589167624593 103.19832293709993 207.69711334443093 147.79664041804244 136.51812625136796C192.3949578989849 65.33913915830504 256.34938960470436 26.268364315850874 340.0375899800904 19.07508664467582C423.7257903554764 11.88180897350071 481.7415750078834 -34.38884288421042 549.5000022198949 101.99039342972713C617.2584294319063 238.36962974366475 733.4588065914478 537.5268353514808 665.2780405977453 673.6954209515752 "></path><path d="M538.0000020491337 124.9142046247361C600.5462425525288 250.80273045298622 707.8081291613364 526.9478433217395 644.8720374748418 652.6419223372112C581.9359457883475 778.3360013526826 339.6206801320718 788.4306293336533 235.90676195396048 728.2457838990003C132.19284377584916 668.0609384643473 161.35978503376964 482.8087946468013 147.04523021990786 363.75466425087575C132.73067540604603 244.70053385495044 126.0292211727076 222.48963839215503 167.19689884742377 156.7859579985584C208.36457652213994 91.08227760496186 267.3994365581886 55.016946981158014 344.65008305854496 48.37699836161181C421.9007295589013 41.73704974206555 475.45376154573853 -0.9743212035139663 538.0000020491337 124.9142046247361C600.5462425525288 250.80273045298622 707.8081291613364 526.9478433217395 644.8720374748418 652.6419223372112 "></path><path d="M526.4999866195835 147.83801581974507C583.8340404143624 263.2358311623076 682.157436472436 516.3688512919981 624.4660190931493 631.5884237228471C566.7746017138627 746.8079961536962 344.6522748622767 756.0614051362527 249.58118319900802 700.8919634878206C154.51009153573932 645.7225218393886 181.2464543554998 475.9080566733047 168.12477910945978 366.77510381037314C155.00310386341982 257.64215094744145 148.86010414952625 237.282163439879 186.5971420180161 177.05378974574887C224.33417988650586 116.82541605161867 278.44946825288383 83.76552964646515 349.2625608782105 77.6789100785478C420.07565350353707 71.59229051063039 469.1659328248046 32.44020047718254 526.4999866195835 147.83801581974507C583.8340404143624 263.2358311623076 682.157436472436 516.3688512919981 624.4660190931493 631.5884237228471 "></path><path d="M514.9999864488224 170.76179649717596C567.1218535349851 275.66890135405106 656.5067590423246 505.78982874467874 604.0600159702458 610.5348945909052C551.613272898167 715.2799604371315 349.6838848512708 723.6921504212737 263.2556197028447 673.5381125590628C176.82735455441855 623.3840746968519 201.133138936019 469.00728818223024 189.20434325780082 369.7955128522924C177.27554757958262 270.58373752235457 171.69100238513397 252.074657970025 205.9974004473974 197.32159097536118C240.30379850966085 142.56852398069736 289.49951520636813 112.51408179419417 353.87505395666506 106.98079127790567C418.2505927069619 101.4475007616171 462.87811936265973 65.85469164030087 514.9999864488224 170.76179649717596C567.1218535349851 275.66890135405106 656.5067590423246 505.78982874467874 604.0600159702458 610.5348945909052 "></path><path d="M503.4999862780612 193.68563820976306C550.4096666556077 288.10203258095055 630.8560816122133 495.2108672325156 583.6540128473423 589.4814264941193C536.4519440824715 683.751985755723 354.7154948402648 691.3229567414511 276.93005620668134 646.1843226654613C199.14461757309778 601.0456885894714 221.01982351653817 462.1065807263119 210.2839074061418 372.8159829293678C199.54799129574548 283.5253851324237 194.52190062074163 266.8672135353272 225.3976588767788 217.58945324012973C256.2734171328159 168.3116929449323 300.54956215985237 141.26269497707943 358.48754703511963 136.28273351241978C416.4255319103869 131.30277204776013 456.59030590051486 99.26924383857545 503.4999862780612 193.68563820976306C550.4096666556077 288.10203258095055 630.8560816122133 495.2108672325156 583.6540128473423 589.4814264941193 "></path><path d="M491.9999708485111 216.60946466356108C533.6974645174412 300.5351485490611 605.2053889233127 484.63189046156333 563.2479944656498 568.4279431385444C521.2906000079868 652.2239958155255 359.74708957046977 658.9537478028392 290.6044774517289 618.8305175130706C221.461865332988 578.7072872233018 240.90649283826832 455.2058580116045 231.36345629569377 375.83643774765414C221.8204197531192 296.4670174837039 217.3527835975603 281.6597538418403 244.79790204737105 237.85730024610928C272.2430204971818 194.05484665037824 311.5995938545476 170.0112929011757 363.10002485478515 165.58466048814483C414.6004558550227 161.15802807511403 450.30247717958093 132.68378077806102 491.9999708485111 216.60946466356108C533.6974645174412 300.5351485490611 605.2053889233127 484.63189046156333 563.2479944656498 568.4279431385444 "></path><path d="M480.50000119532797 239.53327585857005C516.9853081556419 312.96824925838257 579.5547420107796 474.0528984318221 542.8420218603244 547.3744445241805C506.1293017098693 620.6959906165389 364.7787300770419 626.5845236054384 304.2789444731436 591.4766971018909C243.77915886924535 556.3688705983432 260.79320793636566 448.30512003810804 252.44305096161293 378.85687730715154C244.0928939868602 309.408634576195 240.18371235074613 296.45227888956435 264.19819099433056 258.1251319932997C288.2126696379149 219.79798509703505 322.64967132561003 198.75987556648283 367.71254845081785 194.88657220508082C412.7754255760258 191.01326884367887 444.0146942350142 166.09830245875747 480.50000119532797 239.53327585857005C516.9853081556419 312.96824925838257 579.5547420107796 474.0528984318221 542.8420218603244 547.3744445241805 "></path><path d="M469.0000010245669 262.45707179478995C500.2731212762644 325.401334708915 553.9040645806682 463.47389114329167 522.4360187374209 526.3209306510275C490.9679728941737 589.1679701587632 369.8103400660359 594.2152841492485 317.95338097698027 564.122861431922C266.0964218879246 534.0304387145954 280.6798925168848 441.4043668058225 273.5226151099539 381.87730160785975C266.365337703023 322.3502364098971 263.0146105863538 311.2447886784994 283.5984494237119 278.39294848170107C304.18228826106997 245.5411082849028 333.6997182790943 227.5084429730009 372.3250415292725 224.18846866322775C410.95036477945064 220.86849435345465 437.7268807728692 199.51280888066492 469.0000010245669 262.45707179478995C500.2731212762644 325.401334708915 553.9040645806682 463.47389114329167 522.4360187374209 526.3209306510275 "></path><path d="M457.50000085380566 285.38091350737704C483.5609343968871 337.8344659358146 528.2533871505568 452.89492963112843 502.0300156145174 505.26746255424166C475.80664407847803 557.6399954773549 374.84195005502994 561.8460904694259 331.6278174808169 536.7690715383205C288.4136849066038 511.69205260721503 300.56657709740404 434.5036593499042 294.60217925829494 384.89777168493526C288.63778141918584 335.29188401996635 285.8455088219615 326.03734424380156 302.99870785309326 298.6608107464697C320.15190688422496 271.28427724913774 344.74976523257857 256.2570561558862 376.93753460772706 253.49041089774187C409.1253039828755 250.72376563959762 431.4390673107244 232.9273610789395 457.50000085380566 285.38091350737704C483.5609343968871 337.8344659358146 528.2533871505568 452.89492963112843 502.0300156145174 505.26746255424166 "></path><path d="M446.0000006830446 308.304724702386C466.84874751750965 350.267566645136 502.60270972044543 442.3159376013871 481.62401249161394 484.21396393987766C460.64531526278245 526.1119902783682 379.873560044024 529.4768662720251 345.3022539846535 509.4152511271408C310.73094792528303 489.3536359822564 320.4532616779232 427.6029213764077 315.681743406636 387.91821124443254C310.9102251353487 348.2335011124574 308.6764070575692 340.8298692915256 322.3989662824746 318.9286424936601C336.12152550738 297.02741569579456 355.79981218606287 285.0056388211933 381.55002768618164 282.7923226146779C407.3002431863004 280.57900640816246 425.15125384857953 266.34188275963595 446.0000006830446 308.304724702386C466.84874751750965 350.267566645136 502.60270972044543 442.3159376013871 481.62401249161394 484.21396393987766 "></path><path d="M434.4999852534944 331.228535897395C450.13654537934315 362.7006673544575 476.952017031545 431.73694557164583 461.2179941099214 463.16046532551377C445.4839711882978 494.5839850793816 384.9051547742289 497.1076420746242 358.9766752297011 482.061430715961C333.0481956851732 467.0152193572977 340.33993099965335 420.70218340291126 336.7612922961879 390.9386508039299C333.18265359272243 361.17511820494855 331.50729003438784 355.6223943392497 341.7992094530669 339.19647424085053C352.0911288717459 322.7705541424514 366.8498438807581 313.75422148650046 386.16250550584715 312.0942343316139C405.47516713093626 310.43424717672735 418.86342512764554 299.75640444033246 434.4999852534944 331.228535897395C450.13654537934315 362.7006673544575 476.952017031545 431.73694557164583 461.2179941099214 463.16046532551377 "></path><path d="M422.99998508273325 354.15237760998207C433.42435849996576 375.1337985813571 451.30133960143365 421.1579840594826 440.8119909870179 442.1069972287279C430.32264237260216 463.0560103979732 389.9367647632229 464.7384483948016 372.6511117335377 454.70764082235945C355.3654587038525 444.67683324991725 360.22661558017256 413.8014759469929 357.8408564445289 393.95912088100533C355.4550973088853 374.1167658150178 354.33818826999556 370.41494990455186 361.19946788244823 359.4643365056191C368.0607474949009 348.51372310668637 377.8998908342424 342.5028346693857 390.7749985843018 341.396176566128C403.65010633436117 340.2895184628703 412.5756116655007 333.17095663860704 422.99998508273325 354.15237760998207C433.42435849996576 375.1337985813571 451.30133960143365 421.1579840594826 440.8119909870179 442.1069972287279 "></path><path d="M411.50000017076115 377.07617354620197C416.71218687937744 387.56688403188946 425.6506774301114 410.57897677095224 420.4060031229035 421.0534833555749C415.1613288156956 431.52798994019753 394.96839001100597 432.36920893861173 386.3255634961634 427.35380515239063C377.6827369813208 422.3384013661696 380.1133154194808 406.9007227147074 378.92043585165897 396.9795451817136C377.72755628383715 387.0583676487198 377.1691017643923 385.2074596934869 380.5997415706187 379.7321529940205C384.030381376845 374.2568462945541 388.9499530465157 371.2514020759038 395.3875069215454 370.69807302427495C401.8250607965751 370.1447439726461 406.28781346214487 366.5854630605145 411.50000017076115 377.07617354620197C416.71218687937744 387.56688403188946 425.6506774301114 410.57897677095224 420.4060031229035 421.0534833555749 "></path></g></svg>